  0
SECTION
  2
HEADER
  9
$ACADVER
  1
AC1009
  9
$FILLMODE
 70
 0
  9
$SPLFRAME
 70
 1
  9
$EXTMIN
 10
0
 20
0
 30
0.0
  9
$EXTMAX
 10
1058.33
 20
1058.33
 30
0.0
  0
ENDSEC
  0
SECTION
  2
TABLES
  0
TABLE
  2
LAYER
 70
1
  0
LAYER
  2
0
 70
     0
 62
     7
  6
CONTINUOUS
  0
ENDTAB
  0
ENDSEC
  0
SECTION
  2
ENTITIES
  0
LINE
  8
0
 62
     0
 10
0.0950846
 20
95.5075
 30
0.0
 11
138.208
 21
95.5075
 31
0.0
  0
LINE
  8
0
 62
     0
 10
138.208
 20
95.5075
 30
0.0
 11
138.208
 21
0.257693
 31
0.0
  0
LINE
  8
0
 62
     0
 10
138.208
 20
0.257693
 30
0.0
 11
0.0950846
 21
0.257693
 31
0.0
  0
LINE
  8
0
 62
     0
 10
0.0950846
 20
0.257693
 30
0.0
 11
0.0950846
 21
95.5075
 31
0.0
  0
LINE
  8
0
 62
     0
 10
93.1072
 20
16.7831
 30
0.0
 11
93.1072
 21
12.0826
 31
0.0
  0
LINE
  8
0
 62
     0
 10
93.1072
 20
12.0826
 30
0.0
 11
84.431
 21
12.0826
 31
0.0
  0
LINE
  8
0
 62
     0
 10
84.431
 20
12.0826
 30
0.0
 11
84.431
 21
15.3128
 31
0.0
  0
LINE
  8
0
 62
     0
 10
84.431
 20
15.3128
 30
0.0
 11
82.707
 21
15.3128
 31
0.0
  0
LINE
  8
0
 62
     0
 10
82.707
 20
15.3128
 30
0.0
 11
82.707
 21
16.2347
 31
0.0
  0
LINE
  8
0
 62
     0
 10
82.707
 20
16.2347
 30
0.0
 11
79.4067
 21
16.2347
 31
0.0
  0
LINE
  8
0
 62
     0
 10
79.4067
 20
16.2347
 30
0.0
 11
79.4067
 21
15.3128
 31
0.0
  0
LINE
  8
0
 62
     0
 10
79.4067
 20
15.3128
 30
0.0
 11
77.6813
 21
15.3128
 31
0.0
  0
LINE
  8
0
 62
     0
 10
77.6813
 20
15.3128
 30
0.0
 11
77.6813
 21
12.0826
 31
0.0
  0
LINE
  8
0
 62
     0
 10
77.6813
 20
12.0826
 30
0.0
 11
76.8558
 21
12.0826
 31
0.0
  0
LINE
  8
0
 62
     0
 10
76.8558
 20
12.0826
 30
0.0
 11
76.8558
 21
9.28384
 31
0.0
  0
LINE
  8
0
 62
     0
 10
76.8558
 20
9.28384
 30
0.0
 11
77.6813
 21
9.28384
 31
0.0
  0
LINE
  8
0
 62
     0
 10
77.6813
 20
9.28384
 30
0.0
 11
77.6813
 21
3.01377
 31
0.0
  0
LINE
  8
0
 62
     0
 10
77.6813
 20
3.01377
 30
0.0
 11
79.4067
 21
3.01377
 31
0.0
  0
LINE
  8
0
 62
     0
 10
79.4067
 20
3.01377
 30
0.0
 11
79.4067
 21
2.03261
 31
0.0
  0
LINE
  8
0
 62
     0
 10
79.4067
 20
2.03261
 30
0.0
 11
82.707
 21
2.03261
 31
0.0
  0
LINE
  8
0
 62
     0
 10
82.707
 20
2.03261
 30
0.0
 11
82.707
 21
3.01377
 31
0.0
  0
LINE
  8
0
 62
     0
 10
82.707
 20
3.01377
 30
0.0
 11
84.431
 21
3.01377
 31
0.0
  0
LINE
  8
0
 62
     0
 10
84.431
 20
3.01377
 30
0.0
 11
84.431
 21
7.48411
 31
0.0
  0
LINE
  8
0
 62
     0
 10
84.431
 20
7.48411
 30
0.0
 11
93.1072
 21
7.48411
 31
0.0
  0
LINE
  8
0
 62
     0
 10
93.1072
 20
7.48411
 30
0.0
 11
93.1072
 21
2.78364
 31
0.0
  0
LINE
  8
0
 62
     0
 10
93.1072
 20
2.78364
 30
0.0
 11
107.107
 21
2.78364
 31
0.0
  0
LINE
  8
0
 62
     0
 10
107.107
 20
2.78364
 30
0.0
 11
107.107
 21
7.48411
 31
0.0
  0
LINE
  8
0
 62
     0
 10
107.107
 20
7.48411
 30
0.0
 11
115.781
 21
7.48411
 31
0.0
  0
LINE
  8
0
 62
     0
 10
115.781
 20
7.48411
 30
0.0
 11
115.781
 21
3.01377
 31
0.0
  0
LINE
  8
0
 62
     0
 10
115.781
 20
3.01377
 30
0.0
 11
117.507
 21
3.01377
 31
0.0
  0
LINE
  8
0
 62
     0
 10
117.507
 20
3.01377
 30
0.0
 11
117.507
 21
2.03261
 31
0.0
  0
LINE
  8
0
 62
     0
 10
117.507
 20
2.03261
 30
0.0
 11
120.807
 21
2.03261
 31
0.0
  0
LINE
  8
0
 62
     0
 10
120.807
 20
2.03261
 30
0.0
 11
120.807
 21
3.01377
 31
0.0
  0
LINE
  8
0
 62
     0
 10
120.807
 20
3.01377
 30
0.0
 11
122.531
 21
3.01377
 31
0.0
  0
LINE
  8
0
 62
     0
 10
122.531
 20
3.01377
 30
0.0
 11
122.531
 21
9.28384
 31
0.0
  0
LINE
  8
0
 62
     0
 10
122.531
 20
9.28384
 30
0.0
 11
123.357
 21
9.28384
 31
0.0
  0
LINE
  8
0
 62
     0
 10
123.357
 20
9.28384
 30
0.0
 11
123.357
 21
12.0826
 31
0.0
  0
LINE
  8
0
 62
     0
 10
123.357
 20
12.0826
 30
0.0
 11
122.531
 21
12.0826
 31
0.0
  0
LINE
  8
0
 62
     0
 10
122.531
 20
12.0826
 30
0.0
 11
122.531
 21
15.3128
 31
0.0
  0
LINE
  8
0
 62
     0
 10
122.531
 20
15.3128
 30
0.0
 11
120.807
 21
15.3128
 31
0.0
  0
LINE
  8
0
 62
     0
 10
120.807
 20
15.3128
 30
0.0
 11
120.807
 21
16.2347
 31
0.0
  0
LINE
  8
0
 62
     0
 10
120.807
 20
16.2347
 30
0.0
 11
117.507
 21
16.2347
 31
0.0
  0
LINE
  8
0
 62
     0
 10
117.507
 20
16.2347
 30
0.0
 11
117.507
 21
15.3128
 31
0.0
  0
LINE
  8
0
 62
     0
 10
117.507
 20
15.3128
 30
0.0
 11
115.781
 21
15.3128
 31
0.0
  0
LINE
  8
0
 62
     0
 10
115.781
 20
15.3128
 30
0.0
 11
115.781
 21
12.0826
 31
0.0
  0
LINE
  8
0
 62
     0
 10
115.781
 20
12.0826
 30
0.0
 11
107.107
 21
12.0826
 31
0.0
  0
LINE
  8
0
 62
     0
 10
107.107
 20
12.0826
 30
0.0
 11
107.107
 21
16.7831
 31
0.0
  0
LINE
  8
0
 62
     0
 10
107.107
 20
16.7831
 30
0.0
 11
93.1072
 21
16.7831
 31
0.0
  0
LINE
  8
0
 62
     0
 10
5.00091
 20
16.7831
 30
0.0
 11
19.0004
 21
16.7831
 31
0.0
  0
LINE
  8
0
 62
     0
 10
19.0004
 20
16.7831
 30
0.0
 11
19.0004
 21
2.78364
 31
0.0
  0
LINE
  8
0
 62
     0
 10
19.0004
 20
2.78364
 30
0.0
 11
5.00091
 21
2.78364
 31
0.0
  0
LINE
  8
0
 62
     0
 10
5.00091
 20
2.78364
 30
0.0
 11
5.00091
 21
16.7831
 31
0.0
  0
LINE
  8
0
 62
     0
 10
28.812
 20
16.7831
 30
0.0
 11
42.8128
 21
16.7831
 31
0.0
  0
LINE
  8
0
 62
     0
 10
42.8128
 20
16.7831
 30
0.0
 11
42.8128
 21
2.78364
 31
0.0
  0
LINE
  8
0
 62
     0
 10
42.8128
 20
2.78364
 30
0.0
 11
28.812
 21
2.78364
 31
0.0
  0
LINE
  8
0
 62
     0
 10
28.812
 20
2.78364
 30
0.0
 11
28.812
 21
16.7831
 31
0.0
  0
LINE
  8
0
 62
     0
 10
52.626
 20
16.7831
 30
0.0
 11
66.6253
 21
16.7831
 31
0.0
  0
LINE
  8
0
 62
     0
 10
66.6253
 20
16.7831
 30
0.0
 11
66.6253
 21
2.78364
 31
0.0
  0
LINE
  8
0
 62
     0
 10
66.6253
 20
2.78364
 30
0.0
 11
52.626
 21
2.78364
 31
0.0
  0
LINE
  8
0
 62
     0
 10
52.626
 20
2.78364
 30
0.0
 11
52.626
 21
16.7831
 31
0.0
  0
LINE
  8
0
 62
     0
 10
14.5259
 20
35.833
 30
0.0
 11
14.5259
 21
31.1326
 31
0.0
  0
LINE
  8
0
 62
     0
 10
14.5259
 20
31.1326
 30
0.0
 11
13.0004
 21
31.1326
 31
0.0
  0
LINE
  8
0
 62
     0
 10
13.0004
 20
31.1326
 30
0.0
 11
13.0004
 21
34.3628
 31
0.0
  0
LINE
  8
0
 62
     0
 10
13.0004
 20
34.3628
 30
0.0
 11
11.2751
 21
34.3628
 31
0.0
  0
LINE
  8
0
 62
     0
 10
11.2751
 20
34.3628
 30
0.0
 11
11.2751
 21
35.2848
 31
0.0
  0
LINE
  8
0
 62
     0
 10
11.2751
 20
35.2848
 30
0.0
 11
7.97609
 21
35.2848
 31
0.0
  0
LINE
  8
0
 62
     0
 10
7.97609
 20
35.2848
 30
0.0
 11
7.97609
 21
34.3628
 31
0.0
  0
LINE
  8
0
 62
     0
 10
7.97609
 20
34.3628
 30
0.0
 11
6.2508
 21
34.3628
 31
0.0
  0
LINE
  8
0
 62
     0
 10
6.2508
 20
34.3628
 30
0.0
 11
6.2508
 21
31.1326
 31
0.0
  0
LINE
  8
0
 62
     0
 10
6.2508
 20
31.1326
 30
0.0
 11
5.42533
 21
31.1326
 31
0.0
  0
LINE
  8
0
 62
     0
 10
5.42533
 20
31.1326
 30
0.0
 11
5.42533
 21
28.3338
 31
0.0
  0
LINE
  8
0
 62
     0
 10
5.42533
 20
28.3338
 30
0.0
 11
6.2508
 21
28.3338
 31
0.0
  0
LINE
  8
0
 62
     0
 10
6.2508
 20
28.3338
 30
0.0
 11
6.2508
 21
22.0638
 31
0.0
  0
LINE
  8
0
 62
     0
 10
6.2508
 20
22.0638
 30
0.0
 11
7.97609
 21
22.0638
 31
0.0
  0
LINE
  8
0
 62
     0
 10
7.97609
 20
22.0638
 30
0.0
 11
7.97609
 21
21.0826
 31
0.0
  0
LINE
  8
0
 62
     0
 10
7.97609
 20
21.0826
 30
0.0
 11
11.2751
 21
21.0826
 31
0.0
  0
LINE
  8
0
 62
     0
 10
11.2751
 20
21.0826
 30
0.0
 11
11.2751
 21
22.0638
 31
0.0
  0
LINE
  8
0
 62
     0
 10
11.2751
 20
22.0638
 30
0.0
 11
13.0004
 21
22.0638
 31
0.0
  0
LINE
  8
0
 62
     0
 10
13.0004
 20
22.0638
 30
0.0
 11
13.0004
 21
26.5327
 31
0.0
  0
LINE
  8
0
 62
     0
 10
13.0004
 20
26.5327
 30
0.0
 11
14.5259
 21
26.5327
 31
0.0
  0
LINE
  8
0
 62
     0
 10
14.5259
 20
26.5327
 30
0.0
 11
14.5259
 21
21.8336
 31
0.0
  0
LINE
  8
0
 62
     0
 10
14.5259
 20
21.8336
 30
0.0
 11
28.5254
 21
21.8336
 31
0.0
  0
LINE
  8
0
 62
     0
 10
28.5254
 20
21.8336
 30
0.0
 11
28.5254
 21
26.5327
 31
0.0
  0
LINE
  8
0
 62
     0
 10
28.5254
 20
26.5327
 30
0.0
 11
30.0509
 21
26.5327
 31
0.0
  0
LINE
  8
0
 62
     0
 10
30.0509
 20
26.5327
 30
0.0
 11
30.0509
 21
22.0638
 31
0.0
  0
LINE
  8
0
 62
     0
 10
30.0509
 20
22.0638
 30
0.0
 11
31.7748
 21
22.0638
 31
0.0
  0
LINE
  8
0
 62
     0
 10
31.7748
 20
22.0638
 30
0.0
 11
31.7748
 21
21.0826
 31
0.0
  0
LINE
  8
0
 62
     0
 10
31.7748
 20
21.0826
 30
0.0
 11
35.0752
 21
21.0826
 31
0.0
  0
LINE
  8
0
 62
     0
 10
35.0752
 20
21.0826
 30
0.0
 11
35.0752
 21
22.0638
 31
0.0
  0
LINE
  8
0
 62
     0
 10
35.0752
 20
22.0638
 30
0.0
 11
36.8004
 21
22.0638
 31
0.0
  0
LINE
  8
0
 62
     0
 10
36.8004
 20
22.0638
 30
0.0
 11
36.8004
 21
28.3338
 31
0.0
  0
LINE
  8
0
 62
     0
 10
36.8004
 20
28.3338
 30
0.0
 11
37.6259
 21
28.3338
 31
0.0
  0
LINE
  8
0
 62
     0
 10
37.6259
 20
28.3338
 30
0.0
 11
37.6259
 21
31.1326
 31
0.0
  0
LINE
  8
0
 62
     0
 10
37.6259
 20
31.1326
 30
0.0
 11
36.8004
 21
31.1326
 31
0.0
  0
LINE
  8
0
 62
     0
 10
36.8004
 20
31.1326
 30
0.0
 11
36.8004
 21
34.3628
 31
0.0
  0
LINE
  8
0
 62
     0
 10
36.8004
 20
34.3628
 30
0.0
 11
35.0752
 21
34.3628
 31
0.0
  0
LINE
  8
0
 62
     0
 10
35.0752
 20
34.3628
 30
0.0
 11
35.0752
 21
35.2848
 31
0.0
  0
LINE
  8
0
 62
     0
 10
35.0752
 20
35.2848
 30
0.0
 11
31.7748
 21
35.2848
 31
0.0
  0
LINE
  8
0
 62
     0
 10
31.7748
 20
35.2848
 30
0.0
 11
31.7748
 21
34.3628
 31
0.0
  0
LINE
  8
0
 62
     0
 10
31.7748
 20
34.3628
 30
0.0
 11
30.0509
 21
34.3628
 31
0.0
  0
LINE
  8
0
 62
     0
 10
30.0509
 20
34.3628
 30
0.0
 11
30.0509
 21
31.1326
 31
0.0
  0
LINE
  8
0
 62
     0
 10
30.0509
 20
31.1326
 30
0.0
 11
28.5254
 21
31.1326
 31
0.0
  0
LINE
  8
0
 62
     0
 10
28.5254
 20
31.1326
 30
0.0
 11
28.5254
 21
35.833
 31
0.0
  0
LINE
  8
0
 62
     0
 10
28.5254
 20
35.833
 30
0.0
 11
14.5259
 21
35.833
 31
0.0
  0
LINE
  8
0
 62
     0
 10
45.4822
 20
35.833
 30
0.0
 11
59.4815
 21
35.833
 31
0.0
  0
LINE
  8
0
 62
     0
 10
59.4815
 20
35.833
 30
0.0
 11
59.4815
 21
21.8336
 31
0.0
  0
LINE
  8
0
 62
     0
 10
59.4815
 20
21.8336
 30
0.0
 11
45.4822
 21
21.8336
 31
0.0
  0
LINE
  8
0
 62
     0
 10
45.4822
 20
21.8336
 30
0.0
 11
45.4822
 21
35.833
 31
0.0
  0
LINE
  8
0
 62
     0
 10
64.5322
 20
35.833
 30
0.0
 11
78.5315
 21
35.833
 31
0.0
  0
LINE
  8
0
 62
     0
 10
78.5315
 20
35.833
 30
0.0
 11
78.5315
 21
21.8336
 31
0.0
  0
LINE
  8
0
 62
     0
 10
78.5315
 20
21.8336
 30
0.0
 11
64.5322
 21
21.8336
 31
0.0
  0
LINE
  8
0
 62
     0
 10
64.5322
 20
21.8336
 30
0.0
 11
64.5322
 21
35.833
 31
0.0
  0
LINE
  8
0
 62
     0
 10
83.5822
 20
35.833
 30
0.0
 11
97.5815
 21
35.833
 31
0.0
  0
LINE
  8
0
 62
     0
 10
97.5815
 20
35.833
 30
0.0
 11
97.5815
 21
21.8336
 31
0.0
  0
LINE
  8
0
 62
     0
 10
97.5815
 20
21.8336
 30
0.0
 11
83.5822
 21
21.8336
 31
0.0
  0
LINE
  8
0
 62
     0
 10
83.5822
 20
21.8336
 30
0.0
 11
83.5822
 21
35.833
 31
0.0
  0
LINE
  8
0
 62
     0
 10
102.632
 20
35.833
 30
0.0
 11
116.632
 21
35.833
 31
0.0
  0
LINE
  8
0
 62
     0
 10
116.632
 20
35.833
 30
0.0
 11
116.632
 21
21.8336
 31
0.0
  0
LINE
  8
0
 62
     0
 10
116.632
 20
21.8336
 30
0.0
 11
102.632
 21
21.8336
 31
0.0
  0
LINE
  8
0
 62
     0
 10
102.632
 20
21.8336
 30
0.0
 11
102.632
 21
35.833
 31
0.0
  0
LINE
  8
0
 62
     0
 10
121.682
 20
35.833
 30
0.0
 11
135.682
 21
35.833
 31
0.0
  0
LINE
  8
0
 62
     0
 10
135.682
 20
35.833
 30
0.0
 11
135.682
 21
21.8336
 31
0.0
  0
LINE
  8
0
 62
     0
 10
135.682
 20
21.8336
 30
0.0
 11
121.682
 21
21.8336
 31
0.0
  0
LINE
  8
0
 62
     0
 10
121.682
 20
21.8336
 30
0.0
 11
121.682
 21
35.833
 31
0.0
  0
LINE
  8
0
 62
     0
 10
9.76203
 20
54.8831
 30
0.0
 11
23.7629
 21
54.8831
 31
0.0
  0
LINE
  8
0
 62
     0
 10
23.7629
 20
54.8831
 30
0.0
 11
23.7629
 21
40.8838
 31
0.0
  0
LINE
  8
0
 62
     0
 10
23.7629
 20
40.8838
 30
0.0
 11
9.76203
 21
40.8838
 31
0.0
  0
LINE
  8
0
 62
     0
 10
9.76203
 20
40.8838
 30
0.0
 11
9.76203
 21
54.8831
 31
0.0
  0
LINE
  8
0
 62
     0
 10
35.9572
 20
54.8831
 30
0.0
 11
49.9565
 21
54.8831
 31
0.0
  0
LINE
  8
0
 62
     0
 10
49.9565
 20
54.8831
 30
0.0
 11
49.9565
 21
40.8838
 31
0.0
  0
LINE
  8
0
 62
     0
 10
49.9565
 20
40.8838
 30
0.0
 11
35.9572
 21
40.8838
 31
0.0
  0
LINE
  8
0
 62
     0
 10
35.9572
 20
40.8838
 30
0.0
 11
35.9572
 21
54.8831
 31
0.0
  0
LINE
  8
0
 62
     0
 10
55.0072
 20
54.8831
 30
0.0
 11
69.0065
 21
54.8831
 31
0.0
  0
LINE
  8
0
 62
     0
 10
69.0065
 20
54.8831
 30
0.0
 11
69.0065
 21
40.8838
 31
0.0
  0
LINE
  8
0
 62
     0
 10
69.0065
 20
40.8838
 30
0.0
 11
55.0072
 21
40.8838
 31
0.0
  0
LINE
  8
0
 62
     0
 10
55.0072
 20
40.8838
 30
0.0
 11
55.0072
 21
54.8831
 31
0.0
  0
LINE
  8
0
 62
     0
 10
74.0572
 20
54.8831
 30
0.0
 11
88.0565
 21
54.8831
 31
0.0
  0
LINE
  8
0
 62
     0
 10
88.0565
 20
54.8831
 30
0.0
 11
88.0565
 21
40.8838
 31
0.0
  0
LINE
  8
0
 62
     0
 10
88.0565
 20
40.8838
 30
0.0
 11
74.0572
 21
40.8838
 31
0.0
  0
LINE
  8
0
 62
     0
 10
74.0572
 20
40.8838
 30
0.0
 11
74.0572
 21
54.8831
 31
0.0
  0
LINE
  8
0
 62
     0
 10
93.1072
 20
54.8831
 30
0.0
 11
107.107
 21
54.8831
 31
0.0
  0
LINE
  8
0
 62
     0
 10
107.107
 20
54.8831
 30
0.0
 11
107.107
 21
40.8838
 31
0.0
  0
LINE
  8
0
 62
     0
 10
107.107
 20
40.8838
 30
0.0
 11
93.1072
 21
40.8838
 31
0.0
  0
LINE
  8
0
 62
     0
 10
93.1072
 20
40.8838
 30
0.0
 11
93.1072
 21
54.8831
 31
0.0
  0
LINE
  8
0
 62
     0
 10
112.157
 20
54.8831
 30
0.0
 11
126.157
 21
54.8831
 31
0.0
  0
LINE
  8
0
 62
     0
 10
126.157
 20
54.8831
 30
0.0
 11
126.157
 21
40.8838
 31
0.0
  0
LINE
  8
0
 62
     0
 10
126.157
 20
40.8838
 30
0.0
 11
112.157
 21
40.8838
 31
0.0
  0
LINE
  8
0
 62
     0
 10
112.157
 20
40.8838
 30
0.0
 11
112.157
 21
54.8831
 31
0.0
  0
LINE
  8
0
 62
     0
 10
7.38216
 20
73.9331
 30
0.0
 11
21.3817
 21
73.9331
 31
0.0
  0
LINE
  8
0
 62
     0
 10
21.3817
 20
73.9331
 30
0.0
 11
21.3817
 21
59.9338
 31
0.0
  0
LINE
  8
0
 62
     0
 10
21.3817
 20
59.9338
 30
0.0
 11
7.38216
 21
59.9338
 31
0.0
  0
LINE
  8
0
 62
     0
 10
7.38216
 20
59.9338
 30
0.0
 11
7.38216
 21
73.9331
 31
0.0
  0
LINE
  8
0
 62
     0
 10
31.1947
 20
73.9331
 30
0.0
 11
45.194
 21
73.9331
 31
0.0
  0
LINE
  8
0
 62
     0
 10
45.194
 20
73.9331
 30
0.0
 11
45.194
 21
59.9338
 31
0.0
  0
LINE
  8
0
 62
     0
 10
45.194
 20
59.9338
 30
0.0
 11
31.1947
 21
59.9338
 31
0.0
  0
LINE
  8
0
 62
     0
 10
31.1947
 20
59.9338
 30
0.0
 11
31.1947
 21
73.9331
 31
0.0
  0
LINE
  8
0
 62
     0
 10
50.2447
 20
73.9331
 30
0.0
 11
64.244
 21
73.9331
 31
0.0
  0
LINE
  8
0
 62
     0
 10
64.244
 20
73.9331
 30
0.0
 11
64.244
 21
59.9338
 31
0.0
  0
LINE
  8
0
 62
     0
 10
64.244
 20
59.9338
 30
0.0
 11
50.2447
 21
59.9338
 31
0.0
  0
LINE
  8
0
 62
     0
 10
50.2447
 20
59.9338
 30
0.0
 11
50.2447
 21
73.9331
 31
0.0
  0
LINE
  8
0
 62
     0
 10
69.2947
 20
73.9331
 30
0.0
 11
83.294
 21
73.9331
 31
0.0
  0
LINE
  8
0
 62
     0
 10
83.294
 20
73.9331
 30
0.0
 11
83.294
 21
59.9338
 31
0.0
  0
LINE
  8
0
 62
     0
 10
83.294
 20
59.9338
 30
0.0
 11
69.2947
 21
59.9338
 31
0.0
  0
LINE
  8
0
 62
     0
 10
69.2947
 20
59.9338
 30
0.0
 11
69.2947
 21
73.9331
 31
0.0
  0
LINE
  8
0
 62
     0
 10
88.3447
 20
73.9331
 30
0.0
 11
102.344
 21
73.9331
 31
0.0
  0
LINE
  8
0
 62
     0
 10
102.344
 20
73.9331
 30
0.0
 11
102.344
 21
59.9338
 31
0.0
  0
LINE
  8
0
 62
     0
 10
102.344
 20
59.9338
 30
0.0
 11
88.3447
 21
59.9338
 31
0.0
  0
LINE
  8
0
 62
     0
 10
88.3447
 20
59.9338
 30
0.0
 11
88.3447
 21
73.9331
 31
0.0
  0
LINE
  8
0
 62
     0
 10
107.395
 20
73.9331
 30
0.0
 11
121.394
 21
73.9331
 31
0.0
  0
LINE
  8
0
 62
     0
 10
121.394
 20
73.9331
 30
0.0
 11
121.394
 21
59.9338
 31
0.0
  0
LINE
  8
0
 62
     0
 10
121.394
 20
59.9338
 30
0.0
 11
107.395
 21
59.9338
 31
0.0
  0
LINE
  8
0
 62
     0
 10
107.395
 20
59.9338
 30
0.0
 11
107.395
 21
73.9331
 31
0.0
  0
LINE
  8
0
 62
     0
 10
2.61965
 20
92.9831
 30
0.0
 11
16.6192
 21
92.9831
 31
0.0
  0
LINE
  8
0
 62
     0
 10
16.6192
 20
92.9831
 30
0.0
 11
16.6192
 21
78.9838
 31
0.0
  0
LINE
  8
0
 62
     0
 10
16.6192
 20
78.9838
 30
0.0
 11
2.61965
 21
78.9838
 31
0.0
  0
LINE
  8
0
 62
     0
 10
2.61965
 20
78.9838
 30
0.0
 11
2.61965
 21
92.9831
 31
0.0
  0
LINE
  8
0
 62
     0
 10
21.6697
 20
92.9831
 30
0.0
 11
35.669
 21
92.9831
 31
0.0
  0
LINE
  8
0
 62
     0
 10
35.669
 20
92.9831
 30
0.0
 11
35.669
 21
78.9838
 31
0.0
  0
LINE
  8
0
 62
     0
 10
35.669
 20
78.9838
 30
0.0
 11
21.6697
 21
78.9838
 31
0.0
  0
LINE
  8
0
 62
     0
 10
21.6697
 20
78.9838
 30
0.0
 11
21.6697
 21
92.9831
 31
0.0
  0
LINE
  8
0
 62
     0
 10
40.7197
 20
92.9831
 30
0.0
 11
54.719
 21
92.9831
 31
0.0
  0
LINE
  8
0
 62
     0
 10
54.719
 20
92.9831
 30
0.0
 11
54.719
 21
78.9838
 31
0.0
  0
LINE
  8
0
 62
     0
 10
54.719
 20
78.9838
 30
0.0
 11
40.7197
 21
78.9838
 31
0.0
  0
LINE
  8
0
 62
     0
 10
40.7197
 20
78.9838
 30
0.0
 11
40.7197
 21
92.9831
 31
0.0
  0
LINE
  8
0
 62
     0
 10
59.7697
 20
92.9831
 30
0.0
 11
73.769
 21
92.9831
 31
0.0
  0
LINE
  8
0
 62
     0
 10
73.769
 20
92.9831
 30
0.0
 11
73.769
 21
78.9838
 31
0.0
  0
LINE
  8
0
 62
     0
 10
73.769
 20
78.9838
 30
0.0
 11
59.7697
 21
78.9838
 31
0.0
  0
LINE
  8
0
 62
     0
 10
59.7697
 20
78.9838
 30
0.0
 11
59.7697
 21
92.9831
 31
0.0
  0
LINE
  8
0
 62
     0
 10
78.8197
 20
92.9831
 30
0.0
 11
92.819
 21
92.9831
 31
0.0
  0
LINE
  8
0
 62
     0
 10
92.819
 20
92.9831
 30
0.0
 11
92.819
 21
78.9838
 31
0.0
  0
LINE
  8
0
 62
     0
 10
92.819
 20
78.9838
 30
0.0
 11
78.8197
 21
78.9838
 31
0.0
  0
LINE
  8
0
 62
     0
 10
78.8197
 20
78.9838
 30
0.0
 11
78.8197
 21
92.9831
 31
0.0
  0
LINE
  8
0
 62
     0
 10
97.8683
 20
92.9831
 30
0.0
 11
111.869
 21
92.9831
 31
0.0
  0
LINE
  8
0
 62
     0
 10
111.869
 20
92.9831
 30
0.0
 11
111.869
 21
78.9838
 31
0.0
  0
LINE
  8
0
 62
     0
 10
111.869
 20
78.9838
 30
0.0
 11
97.8683
 21
78.9838
 31
0.0
  0
LINE
  8
0
 62
     0
 10
97.8683
 20
78.9838
 30
0.0
 11
97.8683
 21
92.9831
 31
0.0
  0
LINE
  8
0
 62
     0
 10
116.918
 20
92.9831
 30
0.0
 11
130.919
 21
92.9831
 31
0.0
  0
LINE
  8
0
 62
     0
 10
130.919
 20
92.9831
 30
0.0
 11
130.919
 21
78.9838
 31
0.0
  0
LINE
  8
0
 62
     0
 10
130.919
 20
78.9838
 30
0.0
 11
116.918
 21
78.9838
 31
0.0
  0
LINE
  8
0
 62
     0
 10
116.918
 20
78.9838
 30
0.0
 11
116.918
 21
92.9831
 31
0.0
  0
ENDSEC
  0
EOF
